<?xml version="1.0" encoding="UTF-8" standalone="no"?>
<svg
    xmlns="http://www.w3.org/2000/svg"
    width="3300"
    height="2250"
    id="svg2"
    version="1.1">
    <g
        id="field"
        transform="translate(150, 100)">

        <!--
          == Colors ==
          yellow: #f9c001
          yellow-darker: #dea100
          green: #00aa1e
          green-darker: #367526
          blue: #00ace6
          blue-darker: #007fab
          red: #e00000
          red-darker: #b80d07
          gray: #b3afa3
          black: #010204
        -->

        <!-- Main Field -->
        <rect
            style="fill:#b80d07;stroke:none"
            id="main_red_border"
            width="3040"
            height="2040"
            x="-20"
            y="-20" />
        <rect
            style="fill:#00ace6;stroke:none"
            id="mainfield"
            width="3000"
            height="2000"
            x="0"
            y="0" />

        <!-- Left Start Zone -->
        <rect
            style="fill:#00aa1e;stroke:none"
            id="left_green_zone"
            width="400"
            height="1200"
            x="0"
            y="400" />
        <path
            style="fill:#f9c001;stroke:none"
            id="left_yellow_zone"
            d="M 0 800 h 450 a 200 200 0 0 1 0 400 h -450" />
        <rect
            style="fill:#dea100;stroke:none"
            id="left_yellow_border_1"
            width="400"
            height="22"
            x="0"
            y="778" />
        <rect
            style="fill:#dea100;stroke:none"
            id="left_yellow_border_2"
            width="400"
            height="22"
            x="0"
            y="1200" />
        <rect
            style="fill:#dea100;stroke:none"
            id="left_yellow_border_3"
            width="70"
            height="70"
            x="0"
            y="965" />
        <rect
            style="fill:#dea100;stroke:none"
            id="left_yellow_border_4"
            width="22"
            height="400"
            x="48"
            y="800" />

        <!-- Right Start Zone -->
        <rect
            style="fill:#f9c001;stroke:none"
            id="right_yellow_zone"
            width="400"
            height="1200"
            x="2600"
            y="400" />
        <path
            style="fill:#00aa1e;stroke:none"
            id="right_green_zone"
            d="M 3000 800 h -450 a 200 200 0 0 0 0 400 h 450" />
        <rect
            style="fill:#367526;stroke:none"
            id="right_green_border_1"
            width="400"
            height="22"
            x="2600"
            y="778" />
        <rect
            style="fill:#367526;stroke:none"
            id="right_green_border_2"
            width="400"
            height="22"
            x="2600"
            y="1200" />
        <rect
            style="fill:#367526;stroke:none"
            id="right_green_border_3"
            width="70"
            height="70"
            x="2930"
            y="965" />
        <rect
            style="fill:#367526;stroke:none"
            id="right_green_border_4"
            width="22"
            height="400"
            x="2930"
            y="800" />

        <!-- Spotlight Platform -->
        <path
            style="fill:#e00000;stroke:none"
            id="spot_building_area"
            d="M 1100 2000 v -100 a 100 100 0 0 1 100 -100 h 600 a 100 100 0 0 1 100 100 v 100" />
        <rect
            style="fill:#b80d07;stroke:none"
            id="spot_platform"
            width="600"
            height="100"
            x="1200"
            y="1900" />

        <!-- Robomovies Ticket -->
        <path
            style="fill:#e00000;stroke:#010204;stroke-width:22"
            id="robomovies"
            d="M 1500 811 h 480 a 90 90 0 0 0 90 90 v 300 a 90 90 0 0 0 -90 90 h -960 a 90 90 0 0 0 -90 -90 v -300 a 90 90 0 0 0 90 -90 z" />

        <!-- Popcorn machine -->
        <rect
            style="fill:#007fab;stroke:none"
            id="left_popcorn_machine_1"
            width="70"
            height="70"
            x="265"
            y="0" />
        <rect
            style="fill:#007fab;stroke:none"
            id="left_popcorn_machine_2"
            width="70"
            height="70"
            x="565"
            y="0" />
        <rect
            style="fill:#007fab;stroke:none"
            id="right_popcorn_machine_1"
            width="70"
            height="70"
            x="2365"
            y="0" />
        <rect
            style="fill:#007fab;stroke:none"
            id="right_popcorn_machine_2"
            width="70"
            height="70"
            x="2665"
            y="0" />

        <!-- Steps -->
        <rect
            style="fill:#007fab;stroke:none"
            id="steps_border"
            width="1066"
            height="580"
            x="967"
            y="0" />
        <rect
            style="fill:#b3afa3;stroke:none"
            id="left_steps"
            width="500"
            height="558"
            x="989"
            y="22" />
        <rect
            style="fill:#dea100;stroke:none"
            id="left_steps_carpet_1"
            width="500"
            height="278"
            x="989"
            y="22" />
        <rect
            style="fill:#dea100;stroke:none"
            id="left_steps_carpet_2"
            width="300"
            height="300"
            x="1089"
            y="280" />
        <rect
            style="fill:#b3afa3;stroke:none"
            id="right_steps"
            width="500"
            height="558"
            x="1511"
            y="22" />
        <rect
            style="fill:#367526;stroke:none"
            id="left_steps_carpet_1"
            width="500"
            height="278"
            x="1511"
            y="22" />
        <rect
            style="fill:#367526;stroke:none"
            id="left_steps_carpet_2"
            width="300"
            height="300"
            x="1611"
            y="280" />
        <line
            style="stroke:#010204;stroke-width:4"
            x1="989"
            y1="368"
            x2="1489"
            y2="368" />
        <line
            style="stroke:#010204;stroke-width:4"
            x1="989"
            y1="438"
            x2="1489"
            y2="438" />
        <line
            style="stroke:#010204;stroke-width:4"
            x1="989"
            y1="508"
            x2="1489"
            y2="508" />
        <line
            style="stroke:#010204;stroke-width:4"
            x1="989"
            y1="578"
            x2="1489"
            y2="578" />
        <line
            style="stroke:#010204;stroke-width:4"
            x1="1511"
            y1="368"
            x2="2011"
            y2="368" />
        <line
            style="stroke:#010204;stroke-width:4"
            x1="1511"
            y1="438"
            x2="2011"
            y2="438" />
        <line
            style="stroke:#010204;stroke-width:4"
            x1="1511"
            y1="508"
            x2="2011"
            y2="508" />
        <line
            style="stroke:#010204;stroke-width:4"
            x1="1511"
            y1="578"
            x2="2011"
            y2="578" />

        <!-- Paths -->
        <path
            style="fill:none;stroke:#010204;stroke-width:20"
            id="black_path_1"
            d="M 250 2000
               a 150 150 0 0 1 150 -150
               h 460
               a 150 150 0 0 0 150 -150
               a 150 150 0 0 1 150 -150
               h 680
               a 150 150 0 0 1 150 150
               a 150 150 0 0 0 150 150
               h 460
               a 150 150 0 0 1 150 150" />
        <path
            style="fill:none;stroke:#010204;stroke-width:20"
            id="left_black_path"
            d="M 400 1850
               a 150 150 0 0 0 150 -150
               v -873" />
        <path
            style="fill:none;stroke:#010204;stroke-width:20"
            id="right_black_path"
            d="M 2600 1850
               a 150 150 0 0 1 -150 -150
               v -873" />
        <line
            style="stroke:#010204;stroke-width:20"
            x1="550"
            y1="1850"
            x2="550"
            y2="2000" />
        <line
            style="stroke:#010204;stroke-width:20"
            x1="850"
            y1="1850"
            x2="850"
            y2="2000" />
        <line
            style="stroke:#010204;stroke-width:20"
            x1="2150"
            y1="1850"
            x2="2150"
            y2="2000" />
        <line
            style="stroke:#010204;stroke-width:20"
            x1="2450"
            y1="1850"
            x2="2450"
            y2="2000" />

        <!-- Claps -->
        <rect
            style="fill:#dea100;stroke:none"
            id="clap_yellow_1"
            width="220"
            height="30"
            x="180"
            y="2000" />
        <rect
            style="fill:#367526;stroke:none"
            id="clap_green_1"
            width="220"
            height="30"
            x="480"
            y="2000" />
        <rect
            style="fill:#dea100;stroke:none"
            id="clap_yellow_2"
            width="220"
            height="30"
            x="780"
            y="2000" />
        <rect
            style="fill:#367526;stroke:none"
            id="clap_green_2"
            width="220"
            height="30"
            x="2000"
            y="2000" />
        <rect
            style="fill:#dea100;stroke:none"
            id="clap_yellow_3"
            width="220"
            height="30"
            x="2300"
            y="2000" />
        <rect
            style="fill:#367526;stroke:none"
            id="clap_green_3"
            width="220"
            height="30"
            x="2600"
            y="2000" />

        <!-- Beacon places -->
        <rect
            style="fill:#367526;stroke:none"
            id="left_beacon_1"
            width="80"
            height="80"
            x="-100"
            y="-100" />
        <rect
            style="fill:#dea100;stroke:none"
            id="left_beacon_2"
            width="80"
            height="80"
            x="-100"
            y="960" />
        <rect
            style="fill:#367526;stroke:none"
            id="left_beacon_3"
            width="80"
            height="80"
            x="-100"
            y="2020" />
        <rect
            style="fill:#dea100;stroke:none"
            id="right_beacon_1"
            width="80"
            height="80"
            x="3020"
            y="-100" />
        <rect
            style="fill:#367526;stroke:none"
            id="right_beacon_2"
            width="80"
            height="80"
            x="3020"
            y="960" />
        <rect
            style="fill:#dea100;stroke:none"
            id="right_beacon_3"
            width="80"
            height="80"
            x="3020"
            y="2020" />
    </g>
</svg>
