<?xml version="1.0" encoding="UTF-8" standalone="no"?>
<svg
    xmlns="http://www.w3.org/2000/svg"
    width="3300"
    height="2250"
    id="svg2"
    version="1.1">
    <g
        id="field"
        transform="translate(150, 100)">

        <!--
          == Colors ==
          blue: #007cb0
          blue-darker: #00618a
          yellow: #f7b401
          yellow-darker: #d09801
          field-gray: #808080
          black: #0a090e
          gray: #b8b9a7
          white: #f0f1ec
        -->

        <!-- Main Field -->
        <rect x="-20" y="-20" width="3040" height="2040" fill="#b8b9a7" stroke="none" />
        <rect x="0"   y="0"   width="3000" height="2000" fill="#808080" stroke="none" />

        <!-- Left Start Zone -->
        <rect x="0"   y="0"    width="1070" height="360" fill="#007cb0" stroke="none" />
        <rect x="360" y="0"    width="350"  height="360" fill="#b8b9a7" stroke="none" />
        <rect x="0"   y="-20"  width="1070" height="20"  fill="#00618a" stroke="none" />
        <rect x="-20" y="-20"  width="20"   height="380" fill="#00618a" stroke="none" />
        <rect x="0"   y="360"  width="710"  height="22"  fill="#00618a" stroke="none" />
        <rect x="50"  y="-222" width="400"  height="222" fill="#00618a" stroke="none" />
        <rect x="72"  y="-202" width="360"  height="182" fill="#b8b9a7" stroke="none" />

        <!-- Right Start Zone -->
        <rect x="1930" y="0"    width="1070" height="360" fill="#f7b401" stroke="none" />
        <rect x="2290" y="0"    width="350"  height="360" fill="#b8b9a7" stroke="none" />
        <rect x="1930" y="-20"  width="1070" height="20"  fill="#d09801" stroke="none" />
        <rect x="3000" y="-20"  width="20"   height="380" fill="#d09801" stroke="none" />
        <rect x="2290" y="360"  width="710"  height="22"  fill="#d09801" stroke="none" />
        <rect x="2550" y="-222" width="400"  height="222" fill="#d09801" stroke="none" />
        <rect x="2572" y="-202" width="360"  height="182" fill="#b8b9a7" stroke="none" />


        <!-- Beacon places -->
        <rect x="-100" y="-100" width="80" height="80" fill="#00618a" stroke="none" />
        <rect x="-100" y="960"  width="80" height="80" fill="#d09801" stroke="none" />
        <rect x="-100" y="2020" width="80" height="80" fill="#00618a" stroke="none" />
        <rect x="3020" y="-100" width="80" height="80" fill="#d09801" stroke="none" />
        <rect x="3020" y="960"  width="80" height="80" fill="#00618a" stroke="none" />
        <rect x="3020" y="2020" width="80" height="80" fill="#d09801" stroke="none" />

        <!-- Rockets -->
        <circle cx="1150" cy="40"   r="40" fill="#b8b9a7" />
        <circle cx="1850" cy="40"   r="40" fill="#b8b9a7" />
        <circle cx="40"   cy="1350" r="40" fill="#b8b9a7" />
        <circle cx="2960" cy="1350" r="40" fill="#b8b9a7" />

        <!-- Lunar base -->
        <path d="M 1300 2000 A 200 200 1 1 1 1700 2000 Z" fill="#f0f1ec" />
        <rect x="1432" y="1200" width="28" height="600" fill="#f0f1ec" />
        <rect x="1540" y="1200" width="28" height="600" fill="#f0f1ec" />
        <rect x="1432" y="1200" width="28" height="600" fill="#f0f1ec" transform="rotate(45 1500 2000)"/>
        <rect x="1540" y="1200" width="28" height="600" fill="#f0f1ec" transform="rotate(45 1500 2000)"/>
        <rect x="1432" y="1200" width="28" height="600" fill="#f0f1ec" transform="rotate(-45 1500 2000)"/>
        <rect x="1540" y="1200" width="28" height="600" fill="#f0f1ec" transform="rotate(-45 1500 2000)"/>

        <!-- Construction zones -->
        <rect x="0"  y="700"  width="80" height="22"  fill="#f0f1ec" />
        <rect x="0"  y="1172" width="80" height="22"  fill="#f0f1ec" />
        <rect x="80" y="722"  width="28" height="450" fill="#f0f1ec" />

        <rect x="2920" y="700"  width="80" height="22"  fill="#f0f1ec" />
        <rect x="2920" y="1172" width="80" height="22"  fill="#f0f1ec" />
        <rect x="2892" y="722"  width="28" height="450" fill="#f0f1ec" />

        <!-- Craters -->
        <circle cx="650" cy="540" r="112" stroke-width="30" stroke="#b8b9a7" fill="transparent" />
        <circle cx="2350" cy="540" r="112" stroke-width="30" stroke="#b8b9a7" fill="transparent" />
        <circle cx="1070" cy="1870" r="112" stroke-width="30" stroke="#b8b9a7" fill="transparent" />
        <circle cx="1930" cy="1870" r="112" stroke-width="30" stroke="#b8b9a7" fill="transparent" />

        <path d="M    0 1475 A 525 525 0 0 1  525 2000" stroke-width="30" stroke="#b8b9a7" fill="transparent" />
        <path d="M 3000 1475 A 525 525 0 0 0 2475 2000" stroke-width="30" stroke="#b8b9a7" fill="transparent" />
    </g>
</svg>
